<svg width="491" height="151" viewBox="0 0 491 151" fill="none" xmlns="http://www.w3.org/2000/svg">
<path fill-rule="evenodd" clip-rule="evenodd" d="M256.175 83.0245C254.729 84.0712 253.821 83.7251 253.064 82.3661C251.803 80.1038 250.87 77.926 252.097 75.1488C255.393 67.6952 259.487 60.7987 265.297 55.0417C266.138 54.1976 266.852 53.3535 267.701 52.56C268.371 52.0388 269.076 51.5649 269.812 51.1419C270.257 51.6652 270.846 52.0535 270.93 52.5347C270.958 53.1676 270.819 53.7968 270.526 54.358C267.626 61.3558 264.776 68.3789 261.732 75.3092C260.454 78.2214 258.907 81.0408 256.175 83.0245ZM446.762 83.0245C445.316 84.0712 444.408 83.7251 443.651 82.3661C442.39 80.1038 441.457 77.926 442.684 75.1488C445.98 67.6952 450.074 60.7987 455.884 55.0417C456.724 54.1976 457.439 53.3535 458.288 52.56C458.958 52.0388 459.663 51.5649 460.398 51.1419C460.844 51.6652 461.433 52.0535 461.517 52.5347C461.545 53.1676 461.406 53.7968 461.113 54.358C458.204 61.3474 455.362 68.3705 452.319 75.3008C451.041 78.2214 449.494 81.0408 446.762 83.0245ZM383.639 26.4681C384.19 27.4495 384.942 28.3028 385.845 28.9717C386.748 29.6406 387.782 30.1101 388.879 30.3493C389.975 30.5885 391.11 30.5919 392.208 30.3595C393.306 30.127 394.343 29.6639 395.25 29.0005C399.008 26.0355 401.946 22.1527 403.783 17.723C405.238 14.4562 404.691 12.2024 401.875 9.81351C399.149 7.42979 395.707 6.03282 392.097 5.84612C390.197 5.66041 388.734 6.30195 387.986 8.07461C385.968 13.0803 383.782 18.0522 383.194 23.4968C383.062 24.5076 383.22 25.5351 383.648 26.4597L383.639 26.4681ZM325.628 101.545C321.988 104.448 317.439 103.655 314.396 99.6875C313.143 98.0499 312.496 96.3786 313.471 94.5046C315.867 89.8872 317.994 85.0926 320.626 80.6272C324.476 74.0937 328.377 67.5517 332.825 61.4487C335.54 57.7092 339.231 54.6957 342.653 51.5386C343.494 50.7958 345.243 50.2218 346.125 50.6945C347.008 51.1672 347.294 52.9145 347.925 54.2736C347.353 58.3929 347.084 62.5882 346.151 66.6063C345.202 71.2795 343.857 75.8629 342.132 80.3064C340.602 84.0206 338.096 87.2536 336.095 90.7482C333.506 95.1799 329.571 98.3791 325.628 101.536V101.545ZM100.26 104.077C98.5786 105.022 97.7379 104.651 96.8299 102.794C96.6128 102.442 96.4459 102.061 96.3339 101.663C96.2078 100.869 96.1825 100.067 96.1153 99.2655L95.7706 99.2064C95.9309 97.3686 96.1834 95.5402 96.5272 93.728C98.0406 87.4055 100.907 81.8174 104.245 76.3981C107.689 70.5409 111.73 65.0585 116.301 60.039C119.816 56.3248 123.532 52.8301 127.996 50.264C130.224 48.9809 132.965 49.6984 134.587 52.0198C135.074 52.5667 135.348 53.2717 135.359 54.0051C135.37 54.7385 135.117 55.4513 134.646 56.0125C129.972 62.6136 125.398 69.2906 120.875 76.0014C116.352 82.7122 112.131 89.2879 107.659 95.8552C106.094 98.0432 104.41 100.143 102.614 102.144C101.951 102.93 101.157 103.596 100.269 104.111L100.26 104.077ZM178.449 83.5057C179.39 90.6976 176.767 96.6402 171.462 101.35C169.478 103.115 166.653 102.929 164.106 103.199C163.462 103.232 162.816 103.232 162.172 103.199L162.105 103.613C159.969 103.216 157.792 102.971 155.715 102.372C153.084 101.612 152.562 99.7973 154.429 97.7038C155.916 96.0967 157.542 94.6249 159.288 93.3059C164.24 89.423 169.243 85.616 174.253 81.809C176.557 80.1123 178.104 80.6694 178.474 83.5394L178.449 83.5057ZM133.385 13.9497C135.773 13.9497 137.269 14.7938 138.27 16.9632C139.464 19.3065 139.985 21.9369 139.775 24.5604C139.531 26.907 138.657 27.996 136.277 28.4856C133.327 29.1832 130.333 29.674 127.315 29.9543C122.085 30.2467 116.874 30.8102 111.703 31.6426C105.17 32.74 98.6375 33.8036 92.1134 34.9009C90.8943 35.1035 89.692 35.4412 88.473 35.6944C84.0003 36.6145 83.9918 36.606 81.8311 40.3118C81.2637 41.2596 80.7473 42.2374 80.2842 43.2409C77.6863 49.0316 75.2902 54.9236 72.4821 60.613C69.8506 65.9478 67.6815 71.4515 65.5797 76.989C63.8982 81.37 62.3681 85.8101 60.8211 90.2418C59.7366 93.365 58.7613 96.5305 57.702 99.6622C56.3758 103.142 55.4752 106.77 55.02 110.467C54.8687 112.24 54.2886 113.979 53.9691 115.743C53.0468 120.093 53.3377 124.615 54.8098 128.81C54.918 129.063 55.0107 129.322 55.0873 129.586C55.5245 131.359 54.6501 132.828 52.9098 132.811C50.5809 132.811 48.1512 132.642 46.1418 131.41C43.9493 129.983 41.8591 128.403 39.8867 126.683C39.128 126.078 38.5164 125.307 38.0983 124.43C37.6803 123.552 37.4667 122.591 37.4738 121.618C37.4738 119.55 37.2889 117.482 37.1796 115.414C37.3881 109.881 38.3007 104.397 39.8952 99.0966C42.493 89.8113 45.9317 80.7538 49.2442 71.6879C52.0858 63.9219 54.9023 56.1307 58.4082 48.618C59.1649 46.9972 59.9299 45.3765 60.6446 43.7389C60.677 43.6089 60.6782 43.473 60.648 43.3424C60.6177 43.2119 60.5569 43.0904 60.4707 42.9881C60.3844 42.8858 60.2751 42.8056 60.1518 42.7542C60.0286 42.7027 59.8949 42.6815 59.7618 42.6922C57.5002 43.2915 55.2134 43.8064 53.0359 44.5577C47.0246 46.6174 40.9629 48.5589 35.0945 50.9562C28.4359 53.6658 21.9034 56.6625 15.9762 60.8831C13.6732 62.42 11.7076 64.4136 10.2003 66.7413C9.17461 68.4296 8.24139 70.1178 8.39272 72.1437C8.41042 72.5576 8.37368 72.972 8.28343 73.3762C8.2402 73.687 8.11667 73.9811 7.92515 74.2291C7.73362 74.4771 7.48075 74.6705 7.1917 74.79C6.90265 74.9096 6.58747 74.951 6.27751 74.9103C5.96756 74.8696 5.67362 74.7481 5.42492 74.5579C2.7766 72.245 0.515013 69.662 0.220755 65.9478C0.220755 65.8128 0.220755 65.6693 0.178718 65.5342C-0.535909 59.8026 0.842901 54.9742 5.21474 50.8718C7.95656 48.3486 11.0079 46.1871 14.2947 44.4395C20.907 41.0027 27.7211 37.9723 34.6994 35.3652C46.0157 30.8829 57.6768 27.5908 69.3882 24.4422C75.6517 22.754 82.0497 21.6228 88.3721 20.1625C95.098 18.6206 101.866 17.3403 108.676 16.3217C111.534 15.8997 114.41 15.4776 117.285 15.2244C122.649 14.6926 127.971 13.916 133.385 13.9497ZM216.181 33.4406C210.641 33.4406 205.201 34.3776 199.736 35.036C199.905 35.2225 200.055 35.4262 200.182 35.6437C200.365 35.8755 200.487 36.1491 200.539 36.4401C200.591 36.7311 200.57 37.0304 200.478 37.3113C200.387 37.5922 200.227 37.846 200.014 38.0499C199.801 38.2539 199.541 38.4016 199.257 38.48C199.02 38.5828 198.772 38.6565 198.517 38.6995C193.473 39.417 189.79 42.7006 186.352 45.8239C181.307 50.3568 178.247 56.1391 179.769 63.3733C180.567 67.1465 181.795 67.7374 185.049 65.7959C188.462 63.7616 191.724 61.4655 195.137 59.4903C200.711 56.2995 206.378 53.2775 212.011 50.2049C213.247 49.5296 214.483 48.8459 215.744 48.2128L215.181 48.4998C216.585 44.9207 218.022 41.3585 219.384 37.7625C220.671 34.462 219.754 33.449 216.181 33.4406ZM419.841 12.6244C421.052 9.01159 421.682 8.40382 425.323 9.42521C428.148 10.1934 431.074 10.7505 433.301 13.0381C435.529 15.3256 436.816 17.9509 435.899 21.3696C435.159 24.1299 435.899 24.9149 438.607 24.9824C440.406 25.0331 442.213 24.9824 444.012 24.9824V24.3831C447.998 24.3831 451.983 24.2903 455.959 24.4422C457.213 24.4563 458.422 24.9136 459.373 25.7337C461.735 28.2661 460.491 31.3556 456.935 31.8621C454.412 32.225 451.806 32.2588 449.233 32.4107C444.878 32.664 440.523 32.951 436.16 33.1283C433.318 33.2464 431.385 34.31 430.224 37.1041C425.104 49.4452 419.026 61.3811 415.596 74.406C414.259 79.4707 412.073 84.3076 410.467 89.3132C408.589 95.1827 406.829 101.092 405.187 107.04C403.338 113.734 401.656 120.478 399.958 127.214C399.294 129.831 398.68 132.465 398.276 135.132C398.125 136.044 398.587 137.057 398.764 138.019C399.605 137.58 400.698 137.344 401.286 136.669C402.984 134.737 404.527 132.673 405.902 130.498C410.229 123.362 414.477 116.176 418.647 108.939C421.38 104.212 424.037 99.4512 426.71 94.6903C424.97 89.7859 424.785 84.3244 425.937 78.4747C428.055 67.6952 432.452 57.7851 439.977 49.6647C443.617 45.731 448.04 42.498 452.226 39.0962C454.269 37.408 456.733 37.4839 459.205 38.2521C461.55 38.9443 463.963 39.4085 466.25 40.2442C468.537 41.0799 470.933 41.9325 472.783 43.3675C476.145 46.0349 476.642 49.7744 475.675 53.8684C473.791 61.8285 470.47 69.223 466.998 76.5501C465.52 79.8368 463.836 83.0256 461.954 86.0971C460.431 88.3212 458.634 90.3434 456.607 92.1157C455.026 93.5761 453.126 93.804 450.873 92.9599C448.059 92.0295 445.504 90.4445 443.415 88.334C442.499 87.3633 441.389 86.1984 440.145 87.0257C439.202 87.837 438.601 88.9774 438.464 90.2164C438.06 92.6232 437.981 95.0734 438.228 97.5012C438.876 102.051 441.465 106.002 447.317 105.022C452.144 104.171 456.633 101.964 460.264 98.6577C466.511 93.2384 471.807 86.9328 477.02 80.5428C480.433 76.3221 484.04 72.3379 487.621 68.2945C488.175 67.8541 488.797 67.509 489.463 67.2731C489.707 68.0666 490.303 68.9614 490.135 69.6367C488.454 75.1572 486.831 80.7032 483.351 85.4556C479.559 90.6385 475.977 95.9818 472.001 101.021C469.585 104.025 466.891 106.792 463.955 109.285C460.592 112.206 456.388 112.881 452.109 112.662C445.98 112.999 440.868 110.501 436.278 107.133C433.37 105.056 430.884 102.44 428.955 99.4259C428.648 100.591 428.278 101.738 427.845 102.861C424.633 111.125 421.06 119.271 417.302 127.341C414.94 132.189 412.316 136.903 409.441 141.463C406.919 145.6 403.556 148.875 398.714 150.377C397.323 150.887 395.837 151.083 394.362 150.952C392.888 150.821 391.46 150.365 390.18 149.618C382.672 145.245 379.452 138.551 381.243 129.612C382.84 121.66 384.606 113.734 386.641 105.883C385.666 106.98 384.625 108.015 383.521 108.981C378.931 113.016 372.34 112.923 367.354 109.319C363.798 106.787 360.628 103.655 359.005 99.4005C358.49 97.8313 358.055 96.2366 357.702 94.6228C358.156 88.7983 359.838 83.3706 361.519 77.9766C363.739 71.1477 365.916 64.2934 368.346 57.5319C369.784 53.5476 371.709 49.7322 373.391 45.8408C374.231 43.8402 375.19 41.8734 375.997 39.8475C377.039 37.2391 378.015 36.471 380.697 37.256C383.177 37.8967 385.554 38.8857 387.759 40.1936C391.492 42.5656 392.139 45.9421 390.533 49.9939C386.943 59.0682 382.967 67.9991 379.604 77.1578C377.132 83.9108 375.4 90.9424 373.357 97.8558C373.254 98.0952 373.208 98.3552 373.222 98.6155C373.441 99.6791 373.71 100.726 373.954 101.789C374.795 101.418 375.913 101.258 376.543 100.633C381.319 95.9649 386.439 91.6177 390.205 86.0043C390.419 85.682 390.661 85.3797 390.928 85.1011C391.727 84.2569 392.358 84.1556 392.828 84.7465C396.074 75.0306 399.554 65.3823 403.001 55.7424C405.187 49.6984 407.684 43.7727 409.954 37.7625C411.198 34.4789 410.282 33.4659 406.709 33.4575C399.142 33.4575 391.677 35.2301 384.118 35.6015C382.067 35.7028 380.007 35.6859 377.964 35.6015C376.838 35.5424 375.341 35.4158 375.366 33.9133C375.366 32.588 376.804 32.7315 377.796 32.5796C385.287 31.4738 392.778 30.3426 400.277 29.279C403.334 28.7266 406.423 28.3713 409.525 28.2154C410.821 28.2628 412.098 27.8948 413.171 27.1648C414.244 26.4348 415.058 25.3807 415.495 24.1552C417.109 20.3651 418.538 16.5243 419.841 12.6244ZM319.97 3.90463C321.029 1.01772 322.198 0.460599 325.368 1.31317C328.537 2.16573 330.967 4.30981 333.018 6.74089C333.812 7.57577 334.348 8.62343 334.561 9.75735C334.774 10.8913 334.656 12.063 334.221 13.1309C332.766 16.6594 331.253 20.1963 329.874 23.7416C329.084 25.7675 328.63 27.9622 327.73 29.9206C324.577 36.8593 321.097 43.6292 318.137 50.6692C315.178 57.7092 312.757 64.7998 310.184 71.8989C309.41 74.0177 308.855 76.2377 308.2 78.4156L308.973 78.6182C313.648 71.2574 318.221 63.846 323.022 56.5612C326.595 51.1166 331.429 46.8791 336.743 43.1396C337.905 42.3745 339.215 41.8653 340.588 41.6456C341.96 41.4259 343.363 41.5007 344.705 41.8649C347.485 42.4874 350.191 43.4071 352.776 44.6084C358.997 47.529 360.51 53.286 361.704 59.026C362.68 63.7025 361.545 68.2101 360.864 72.7008C359.421 81.5862 356.238 90.0961 351.498 97.7376C350.748 99.0577 349.814 100.263 348.723 101.317C345.554 104.204 342.401 107.124 338.962 109.69C334.523 113.016 329.176 112.62 323.829 110.931C319.978 109.716 315.985 108.829 312.748 105.791C311.47 104.592 310.016 104.626 308.628 106.111C306.384 108.526 303.668 110.712 299.767 109.167C297.062 108.08 294.665 106.341 292.789 104.102C289.258 99.9914 288.434 95.6611 288.585 91.2041C286.24 94.513 283.886 97.8136 281.38 100.996C278.965 104 276.27 106.767 273.334 109.26C269.971 112.181 265.768 112.856 261.488 112.636C255.359 112.974 250.248 110.475 245.657 107.107C242.749 105.03 240.264 102.415 238.334 99.4005C238.028 100.565 237.657 101.712 237.225 102.836C234.013 111.1 230.44 119.246 226.682 127.316C224.313 132.176 221.68 136.901 218.796 141.472C216.273 145.608 212.911 148.883 208.068 150.386C206.677 150.895 205.192 151.092 203.717 150.96C202.242 150.829 200.814 150.374 199.534 149.626C192.027 145.253 188.807 138.559 190.597 129.62C193.398 115.091 197.082 100.748 201.628 86.6711C205.066 76.3053 208.74 66.0154 212.448 55.7424C212.745 54.9151 213.051 54.0879 213.365 53.2606L213.02 53.5139L212.045 54.1723C209.379 55.9281 206.529 57.2871 204.091 59.5072C201.653 61.7272 198.551 63.1369 195.759 64.9433C193.498 66.4037 191.22 67.8471 189.034 69.4341C185.511 71.9665 185.2 73.3508 186.991 77.2169C187.638 78.6182 188.386 79.9688 189.034 81.37C193.632 91.2969 191.278 100.211 184.83 108.382C182.089 111.851 178.012 112.797 173.774 112.991H172.875H171.067C164.341 112.392 157.952 110.678 152.621 106.238L152.68 106.289L152.436 106.685C149.073 111.894 143.054 113.008 137.454 109.733L137.068 109.496C131.073 105.757 127.441 100.363 126.878 93.1793C126.787 91.9668 126.596 90.764 126.306 89.5834C126.163 89.0178 125.65 88.1146 125.323 88.1061C125.015 88.1321 124.717 88.2258 124.45 88.3804C124.182 88.5351 123.952 88.7469 123.776 89.0009C119.967 94.4624 116.411 100.126 112.375 105.394C110.055 108.424 107.028 110.864 102.623 110.509C99.2596 110.239 95.821 110.661 92.7271 108.331C87.38 104.313 84.118 99.1979 83.7396 91.3898C83.3368 85.143 84.9366 78.9309 88.3048 73.6631C91.8107 68.1088 94.8121 62.1662 98.6627 56.8988C101.731 52.6782 105.733 49.2342 109.348 45.4778C110.391 44.198 111.598 43.0626 112.938 42.1013C115.079 40.897 117.518 40.3345 119.967 40.4806C126.703 40.6373 133.182 43.1105 138.32 47.4868C140.775 49.5127 141.423 49.3439 142.65 46.6427C142.919 46.0518 143.188 45.4609 143.449 44.8616C145.189 40.8689 145.652 40.641 149.906 41.2403C155.017 42 159.507 47.7738 158.313 52.7795C157.304 56.9579 155.404 60.8493 153.891 64.8589C152.024 69.8477 150.2 74.8534 148.266 79.8168C147.089 82.8557 145.584 85.7257 144.508 88.8236C143.481 91.789 142.666 94.8243 142.07 97.9064C141.877 98.8856 142.642 100.135 142.97 101.283C144.004 100.987 145.282 100.979 146.03 100.338L146.248 100.152C145.517 98.8181 145.694 97.5013 146.896 95.889C148.499 93.7173 150.373 91.76 152.47 90.0645C157.994 85.6582 163.685 81.4629 169.285 77.1916C169.999 76.6429 170.773 76.1702 171.471 75.5962C173.648 73.7982 173.993 72.3885 172.757 69.8477C171.521 67.3069 170.411 64.9771 169.091 62.622C167.419 59.7838 166.429 56.5936 166.198 53.3042C165.968 50.0148 166.503 46.7167 167.763 43.6714C169.386 39.5774 172.656 36.4794 175.901 33.5419C176.572 32.9379 177.295 32.3955 178.062 31.9212C180.836 30.1907 183.644 28.9836 187.142 29.7349C189.434 30.195 191.684 30.8473 193.868 31.6848C199.122 30.9082 204.385 30.1232 209.648 29.3719C212.692 28.8354 215.767 28.4942 218.855 28.3505C220.15 28.3979 221.427 28.0299 222.5 27.2999C223.573 26.5699 224.387 25.5158 224.824 24.2903C226.43 20.517 227.867 16.6931 229.17 12.7595C230.381 9.14665 231.012 8.53888 234.652 9.56027C237.477 10.3284 240.403 10.8855 242.631 13.1731C244.859 15.4607 246.145 18.0859 245.228 21.5046C244.489 24.2649 245.228 25.05 247.936 25.1175C249.735 25.1681 251.542 25.1175 253.342 25.1175V24.5182C257.327 24.5182 261.312 24.4253 265.288 24.5773C266.542 24.5913 267.751 25.0486 268.702 25.8688C271.064 28.4011 269.82 31.4906 266.264 31.9971C263.742 32.3601 261.135 32.3939 258.563 32.5458C254.208 32.799 249.853 33.086 245.489 33.2633C242.647 33.3815 240.714 34.4451 239.553 37.2391C234.568 49.4621 228.447 61.398 225.009 74.3891C223.672 79.4538 221.486 84.2907 219.88 89.2964C218.003 95.1658 216.243 101.075 214.6 107.023C212.751 113.717 211.069 120.461 209.371 127.198C208.707 129.814 208.085 132.448 207.69 135.115C207.538 136.027 208.001 137.04 208.177 138.002C209.018 137.563 210.111 137.327 210.699 136.652C212.397 134.72 213.94 132.656 215.315 130.481C219.642 123.346 223.891 116.159 228.061 108.922C230.793 104.195 233.45 99.4343 236.123 94.6734C234.383 89.7691 234.198 84.3076 235.35 78.4578C237.477 67.6783 241.866 57.7683 249.39 49.6478C253.031 45.7142 257.453 42.4812 261.64 39.0793C263.683 37.3911 266.146 37.4671 268.618 38.2352C270.963 38.9274 273.376 39.3917 275.663 40.2273C277.95 41.063 280.346 41.9156 282.196 43.3506C285.559 46.018 286.055 49.7575 285.088 53.8515C283.205 61.8116 279.884 69.2062 276.411 76.5332C274.934 79.8199 273.249 83.0087 271.367 86.0802C269.852 88.3028 268.064 90.3249 266.045 92.0988C264.465 93.5592 262.564 93.7871 260.311 92.943C257.497 92.0126 254.942 90.4276 252.854 88.3172C251.938 87.3464 250.828 86.1815 249.583 87.0088C248.641 87.8201 248.04 88.9605 247.902 90.1996C247.499 92.6063 247.42 95.0565 247.667 97.4844C248.314 102.034 250.903 105.985 256.755 105.006C261.583 104.154 266.072 101.947 269.702 98.6408C275.949 93.2215 281.246 86.9159 286.458 80.5259C288.14 78.4325 289.93 76.3728 291.713 74.33C293.889 66.4881 296.517 58.7795 299.582 51.2432C302.11 44.8166 304.781 38.4575 307.594 32.1659C310.033 26.7045 312.857 21.4456 315.296 15.9925C316.548 13.1816 317.658 10.2862 318.726 7.38243L319.97 3.90463Z" fill="#FF642F"/>
</svg>
